<svg xmlns="http://www.w3.org/2000/svg" width="70.945" height="81.889" viewBox="0 0 66.510714 76.770826"><path class="fil0" d="M7.74 38.43v-5.94l8.91 5.13 16.65 9.54 16.56-9.54 8.91-5.13 7.74-4.5v-8.82L49.86 9.63 33.3 0 16.65 9.63 5.22 16.2l7.74 4.5 7.56-4.41L33.3 9l12.69 7.29 12.69 7.38L33.3 38.25 7.83 23.67 0 19.17v23.67l7.74 4.41 8.91 5.13 16.65 9.63 16.56-9.63 8.91-5.13V53.28L33.3 67.86 0 48.78v8.82l16.65 9.63 16.65 9.54 16.56-9.54 16.65-9.63V34.02l-7.74 4.41L33.3 53.01z" clip-rule="evenodd" fill="#ff4b03" fill-rule="evenodd" image-rendering="optimizeQuality" shape-rendering="geometricPrecision" text-rendering="geometricPrecision"/></svg>